<svg width="50" height="50" viewBox="0 0 50 50" fill="none" xmlns="http://www.w3.org/2000/svg">
<path d="M16.0306 6.16789C15.1324 4.58982 15.6761 2.56945 17.245 1.65527C18.8138 0.741083 20.8137 1.27927 21.7119 2.85733L36.7404 29.2619C37.6386 30.84 37.0949 32.8604 35.5261 33.7745C33.9572 34.6887 31.9573 34.1505 31.0591 32.5725L16.0306 6.16789Z" fill="#ED7D31"/>
<rect width="6.57549" height="52.6166" rx="3.28774" transform="matrix(0.864013 -0.503469 0.494654 0.86909 0 4.27148)" fill="#121212"/>
<path d="M42.6835 3.337C43.4273 1.68274 45.3655 0.955951 47.0137 1.71327C48.6627 2.47097 49.3971 4.42736 48.654 6.08299L30.3143 46.9459C29.5612 48.6239 27.5877 49.3509 25.9258 48.5626C24.2914 47.7873 23.5732 45.8363 24.315 44.1867L42.6835 3.337Z" fill="#121212"/>
</svg>
