<svg width="50" height="50" viewBox="0 0 50 50" fill="none" xmlns="http://www.w3.org/2000/svg">
<path d="M16.0306 6.16789C15.1324 4.58982 15.6761 2.56945 17.245 1.65527V1.65527C18.8138 0.741083 20.8137 1.27927 21.7119 2.85733L36.7404 29.2619C37.6386 30.84 37.0949 32.8604 35.5261 33.7745V33.7745C33.9572 34.6887 31.9573 34.1506 31.0591 32.5725L16.0306 6.16789Z" fill="#ED7D31"/>
<path d="M1.6263 7.12883C0.728117 5.55076 1.2718 3.53039 2.84065 2.61621V2.61621C4.4095 1.70202 6.40942 2.2402 7.3076 3.81827L30.082 43.8321C30.9802 45.4102 30.4365 47.4306 28.8677 48.3447V48.3447C27.2988 49.2589 25.2989 48.7207 24.4007 47.1427L1.6263 7.12883Z" fill="#F5F6F9"/>
<path d="M42.6835 3.337C43.4273 1.68274 45.3655 0.955951 47.0137 1.71327V1.71327C48.6627 2.47097 49.3971 4.42736 48.654 6.08299L30.3143 46.9459C29.5612 48.6239 27.5877 49.3509 25.9258 48.5626V48.5626C24.2914 47.7873 23.5732 45.8363 24.315 44.1867L42.6835 3.337Z" fill="#F5F6F9"/>
</svg>
