<svg xmlns="http://www.w3.org/2000/svg"  viewBox="0 0 64 64" width="256px" height="256px"><path fill="#ced9ed" d="M30,25h28c1.105,0,2-0.895,2-2V13c0-1.105-0.895-2-2-2H30c-1.105,0-2,0.895-2,2v10 C28,24.105,28.895,25,30,25z"/><path fill="#8d6c9f" d="M58,26H30c-1.654,0-3-1.346-3-3V13c0-1.654,1.346-3,3-3h28c1.654,0,3,1.346,3,3v10 C61,24.654,59.654,26,58,26z M30,12c-0.551,0-1,0.449-1,1v10c0,0.551,0.449,1,1,1h28c0.551,0,1-0.449,1-1V13c0-0.551-0.449-1-1-1 H30z"/><path fill="#b5c4e0" d="M38 12H44V24H38z"/><path fill="#8d6c9f" d="M44 22c.553 0 1-.448 1-1v-2c0-.552-.447-1-1-1s-1 .448-1 1v2C43 21.552 43.447 22 44 22zM39 22c.553 0 1-.448 1-1v-2c0-.552-.447-1-1-1s-1 .448-1 1v2C38 21.552 38.447 22 39 22zM49 22c.553 0 1-.448 1-1v-2c0-.552-.447-1-1-1s-1 .448-1 1v2C48 21.552 48.447 22 49 22zM54 22c.553 0 1-.448 1-1v-2c0-.552-.447-1-1-1s-1 .448-1 1v2C53 21.552 53.447 22 54 22z"/><path fill="#ced9ed" d="M30,39h28c1.105,0,2-0.895,2-2V27c0-1.105-0.895-2-2-2H30c-1.105,0-2,0.895-2,2v10 C28,38.105,28.895,39,30,39z"/><path fill="#8d6c9f" d="M58,40H30c-1.654,0-3-1.346-3-3V27c0-1.654,1.346-3,3-3h28c1.654,0,3,1.346,3,3v10 C61,38.654,59.654,40,58,40z M30,26c-0.551,0-1,0.449-1,1v10c0,0.551,0.449,1,1,1h28c0.551,0,1-0.449,1-1V27c0-0.551-0.449-1-1-1 H30z"/><path fill="#b5c4e0" d="M38 26H44V38H38z"/><path fill="#8d6c9f" d="M44 36c.553 0 1-.448 1-1v-2c0-.552-.447-1-1-1s-1 .448-1 1v2C43 35.552 43.447 36 44 36zM39 36c.553 0 1-.448 1-1v-2c0-.552-.447-1-1-1s-1 .448-1 1v2C38 35.552 38.447 36 39 36zM49 36c.553 0 1-.448 1-1v-2c0-.552-.447-1-1-1s-1 .448-1 1v2C48 35.552 48.447 36 49 36zM54 36c.553 0 1-.448 1-1v-2c0-.552-.447-1-1-1s-1 .448-1 1v2C53 35.552 53.447 36 54 36z"/><path fill="#ced9ed" d="M30,53h28c1.105,0,2-0.895,2-2V41c0-1.105-0.895-2-2-2H30c-1.105,0-2,0.895-2,2v10 C28,52.105,28.895,53,30,53z"/><path fill="#8d6c9f" d="M58,54H30c-1.654,0-3-1.346-3-3V41c0-1.654,1.346-3,3-3h28c1.654,0,3,1.346,3,3v10 C61,52.654,59.654,54,58,54z M30,40c-0.551,0-1,0.449-1,1v10c0,0.551,0.449,1,1,1h28c0.551,0,1-0.449,1-1V41c0-0.551-0.449-1-1-1 H30z"/><path fill="#b5c4e0" d="M38 40H44V52H38z"/><path fill="#8d6c9f" d="M44,50c0.553,0,1-0.448,1-1v-2c0-0.552-0.447-1-1-1s-1,0.448-1,1v2C43,49.552,43.447,50,44,50z"/><g><path fill="#8d6c9f" d="M39,50c0.553,0,1-0.448,1-1v-2c0-0.552-0.447-1-1-1s-1,0.448-1,1v2C38,49.552,38.447,50,39,50z"/></g><g><path fill="#8d6c9f" d="M49,50c0.553,0,1-0.448,1-1v-2c0-0.552-0.447-1-1-1s-1,0.448-1,1v2C48,49.552,48.447,50,49,50z"/></g><g><path fill="#8d6c9f" d="M54,50c0.553,0,1-0.448,1-1v-2c0-0.552-0.447-1-1-1s-1,0.448-1,1v2C53,49.552,53.447,50,54,50z"/></g><g><path fill="#f283a5" d="M39,6.384c0-0.889-0.391-1.727-1.072-2.298c-0.681-0.571-1.573-0.813-2.45-0.656L6.305,8.579 C4.39,8.917,3,10.573,3,12.517v38.967c0,1.944,1.39,3.601,3.305,3.938l29.174,5.148h0c0.174,0.031,0.349,0.046,0.523,0.046 c0.7,0,1.381-0.244,1.926-0.702C38.609,59.343,39,58.505,39,57.617V6.384z"/></g><g><path fill="#f7a1c8" d="M37.62,4.247c-0.142-0.118-0.439-0.302-0.868-0.231L5.756,9.432C4.738,9.61,4,10.481,4,11.504v4 c0-1.023,0.738-1.894,1.756-2.072l30.997-5.416c0.429-0.071,0.726,0.113,0.868,0.231C37.762,8.364,38,8.626,38,9.053v-4 C38,4.626,37.762,4.364,37.62,4.247z"/></g><g><path fill="#ed7899" d="M8.016,31c-2.221,0-4.017,1.81-4,4.031l0.137,17.465c0,1.023,0.731,1.894,1.738,2.072l30.69,5.416 h0c0.424,0.073,0.719-0.113,0.859-0.231c0.141-0.117,0.376-0.379,0.376-0.805l0.144-23.923c0.013-2.219-1.781-4.024-4-4.024H8.016 z"/></g><g><path fill="#8d6c9f" d="M39,6.384c0-0.889-0.391-1.727-1.072-2.298c-0.681-0.571-1.573-0.813-2.45-0.656L6.305,8.579 C4.39,8.917,3,10.573,3,12.517v38.967c0,1.944,1.39,3.601,3.305,3.938l29.174,5.148h0c0.174,0.031,0.349,0.046,0.523,0.046 c0.7,0,1.381-0.244,1.926-0.702C38.609,59.343,39,58.505,39,57.617V6.384z M37,57.617c0,0.405-0.224,0.654-0.357,0.766 c-0.134,0.112-0.414,0.287-0.817,0.22h0L6.652,53.454C5.695,53.285,5,52.457,5,51.484V12.517c0-0.973,0.695-1.801,1.652-1.97 l29.173-5.148c0.403-0.069,0.683,0.107,0.817,0.22C36.776,5.73,37,5.979,37,6.384V57.617z"/></g><g><path fill="#faefde" d="M27.511,41.692L26,37.016V37h-0.005l-4.947-15.308c-0.133-0.411-0.515-0.69-0.947-0.692 c-0.001,0-0.003,0-0.004,0c-0.431,0-0.813,0.275-0.949,0.684L14.05,37H14v0.151l-1.508,4.533c-0.174,0.524,0.109,1.09,0.633,1.265 C13.229,42.984,13.336,43,13.44,43c0.419,0,0.81-0.266,0.949-0.685L15.493,39h9.046l1.069,3.308 c0.169,0.525,0.733,0.813,1.259,0.644C27.393,42.782,27.681,42.218,27.511,41.692z M16.158,37l3.924-11.791L23.893,37H16.158z"/></g></svg>